<svg xmlns="http://www.w3.org/2000/svg" viewBox="0 0 744.73 226.05"><defs><style>.cls-1{fill:#009ada;}.cls-2{fill:#fff;}</style></defs><g id="Layer_2" data-name="Layer 2"><g id="Layer_1-2" data-name="Layer 1"><path class="cls-1" d="M226.05,113A113,113,0,1,1,113,0a113,113,0,0,1,113,113"/><path class="cls-2" d="M184.08,96.13V68H42V96.13H59.62V85.76H88.76v21.87H57.68v17.7H88.76V166h48.52V125.33h31.09v-17.7H137.28V85.76h29.14V96.13Zm-64.5,52.09H106.46V85.76h13.12Z"/><polygon class="cls-1" points="249.88 68.06 310.63 68.06 310.63 85.13 269.31 85.13 269.31 109.67 306.88 109.67 306.88 127.01 269.31 127.01 269.31 162.38 249.88 162.38 249.88 68.06"/><polygon class="cls-1" points="327 68.06 346.42 68.06 346.42 145.31 389.11 145.31 389.11 162.38 327 162.38 327 68.06"/><path class="cls-1" d="M415.19,127.84,382.47,68.06h21.76l13.32,25.66c3.47,6.66,7.63,17.76,7.63,17.76s3.9-10.83,7.35-17.76l12.76-25.66h20l-30.53,58.39v35.93H415.19Z"/><polygon class="cls-1" points="477.88 68.06 540.29 68.06 540.29 85.13 497.3 85.13 497.3 106.76 535.16 106.76 535.16 123.4 497.3 123.4 497.3 145.31 542.23 145.31 542.23 162.38 477.88 162.38 477.88 68.06"/><path class="cls-2" d="M639.08,70.74a16.45,16.45,0,0,0,1.64-.63c.56-.26,1.11-.53,1.6-.82s.68-.4,1-.58l1.93-3.08c.53-.86.93-1.58,1.22-2.15a6.9,6.9,0,0,0,.45-1.17,5.71,5.71,0,0,0,.09-.88.78.78,0,0,0-.16-.45,3.09,3.09,0,0,0-.76-.83,4.84,4.84,0,0,0-1.17-.7,2.7,2.7,0,0,0-1-.22c-.22,0-1.09.12-2.74,1.88a19.13,19.13,0,0,0-1.63,2c-.61.84-1.21,1.74-1.76,2.66s-1.07,1.88-1.52,2.8q-.32.7-.54,1.29a3.16,3.16,0,0,0,2.59,1.11,3.53,3.53,0,0,0,.83-.19m105.65,30.63h0a14,14,0,0,1-1.64.23,24.49,24.49,0,0,0-2.59.52c-1.16.29-2.49.6-4,.92l-4.82,1c-1.76.33-3.63.63-5.59.87l-7.15.78c-2.13.23-4.17.44-6.12.61s-3.86.29-5.76.36-3.93.11-6.08.11a4.35,4.35,0,0,1-4.68-4.69A52.92,52.92,0,0,1,698,92.18c1.09-4.67,2.8-10.69,5.09-17.93a25.25,25.25,0,0,0,1.45-7.65c0-3.12-1.22-3.76-3.19-3.76-1,0-2.24.29-3.15,2.46A19.86,19.86,0,0,0,697,68.84c-.33,1.37-.61,2.81-.86,4.28s-.56,3.08-.86,4.59A42.81,42.81,0,0,1,694.2,82L693,87l-1.45,6-1.45,6s-1.2,5.11-1.22,5.18a8.67,8.67,0,0,1-1.13,2.71,5.38,5.38,0,0,1-1.83,1.74,8.37,8.37,0,0,1-.79.33l-7.06.71-2.5.21-4.41.39c-1.47.13-2.52.19-3.19.19s-1.6,0-2.58,0a15.18,15.18,0,0,0-2.45.24,5.17,5.17,0,0,0-1.49.51,9.76,9.76,0,0,0,.42,3.1,3.06,3.06,0,0,0,.93,1.44,4.57,4.57,0,0,0,2,.76,21.79,21.79,0,0,0,4,.3c.32,0,1,0,2.31-.14.93-.08,2-.19,3-.3,1.33-.11,3.4-.3,5.7-.53-1,1.32-2.68,3.34-3.57,4.44-.77.91-1.59,1.86-2.47,2.86L670.19,127c-1.5,1.64-3.21,3.39-5.09,5.22s-3.91,3.72-6,5.6a80.1,80.1,0,0,1-6.52,5.22,41.11,41.11,0,0,1-6.61,3.86,15.69,15.69,0,0,1-6.49,1.61,4.89,4.89,0,0,1-3.22-1.14,6.54,6.54,0,0,1-1.75-2.44,12.18,12.18,0,0,1-.81-2.82,17.63,17.63,0,0,1-.25-2.89c0-2.7.16-5.55.44-8.46l.89-8.7.89-8.8c.27-2.87.41-5.73.41-8.49a7.67,7.67,0,0,0-.74-4,1.83,1.83,0,0,0-.58-.69,1.31,1.31,0,0,0-.66.1c-.48.27-1.08.55-1.81.87a101.69,101.69,0,0,1-11.06,4c-3.76,1.09-8,2.09-12.6,2.94-1.88.38-3.9.71-6,1s-4.14.48-6.21.65-4,.31-5.94.43-3.74.21-5.35.25l-2.12.06v-2.12a142.59,142.59,0,0,1,1.06-18.35,59.22,59.22,0,0,1,3.2-13.68A23,23,0,0,1,593,67.31,12.49,12.49,0,0,1,601.61,64a7.68,7.68,0,0,1,3.65.84,7.93,7.93,0,0,1,2.62,2.24A12.51,12.51,0,0,1,609.55,70c.43,1,0,2.3.65,3.28,0,0,.28.47.47.47s.33,0,.58-.41c.64-1,.49-1.87.58-3a19.11,19.11,0,0,0,.06-2.58c0-4-.91-6.85-2.69-8.54s-4.43-2.6-7.88-2.6A14.21,14.21,0,0,0,595.38,58a20.47,20.47,0,0,0-6.06,4.39,33.77,33.77,0,0,0-5.58,7.73,51.74,51.74,0,0,0-4.4,11.27,58.11,58.11,0,0,0-1.54,7c-.41,2.42-.75,4.86-1,7.24s-.49,4.76-.64,7-.22,4.48-.27,6.51l0,1.68-1.65.3a30.88,30.88,0,0,1-4.22.45c-1.3,0-2.65.08-4,.08a29.93,29.93,0,0,0-4.32.23,5.83,5.83,0,0,0-2.08.58c-.37.2-.45.37-.47.42a4.51,4.51,0,0,0-.22,1.53.8.8,0,0,0,.21.63,3.23,3.23,0,0,0,1.18.82,8.44,8.44,0,0,0,2,.57,13.34,13.34,0,0,0,2,.18c1.59,0,2.71,0,3.4,0s1.12,0,1.55,0a10.3,10.3,0,0,0,1.24-.09l3-.32,2.27-.22v2.27c-.06,10.08-.22,19.71-.5,28.66s-.9,17.87-1.79,26.39l-.34,2.67-.24,1.83a31.67,31.67,0,0,1-1.29,5.85A17.32,17.32,0,0,1,569,189a6.63,6.63,0,0,1-5.51,2.78,9.27,9.27,0,0,1-2.81-.56c-.49-.17-1,.12-1.33.71.16,2,1,2.73,2.23,4.18a6.71,6.71,0,0,0,5.39,2.4,7.52,7.52,0,0,0,1.41-.16,7.66,7.66,0,0,0,1.54-.49,9,9,0,0,0,1.41-.74,3.79,3.79,0,0,0,.82-.7,27.33,27.33,0,0,0,4-8.51,87.66,87.66,0,0,0,2.81-13c.71-5,1.31-10.61,1.75-16.69s.82-12.63,1.09-19.44l.26-6,.2-5.93c.08-1.84.13-3.6.13-5.2l.05-4s0-1.94,0-2l1.94-.09c2.89-.15,6.14-.39,9.64-.74s7.17-.78,10.82-1.26,7.28-1,10.86-1.6l9.83-1.61,2-.34.36,2c.11.57.18,1.12.27,1.66a19.62,19.62,0,0,1,.11,2.4c0,1.1-.11,2.86-.32,5.35l-.7,7.72-.71,7.66c-.21,2.34-.32,4-.32,5a45.25,45.25,0,0,0,.37,5.9,14.68,14.68,0,0,0,1.34,4.57,7.64,7.64,0,0,0,2.55,2.9,7.72,7.72,0,0,0,4.18,1.09,18.3,18.3,0,0,0,6.46-1.32,41.62,41.62,0,0,0,7.36-3.75,79.35,79.35,0,0,0,7.63-5.52c2.55-2.09,5.05-4.31,7.44-6.59s4.68-4.65,6.83-7,4.08-4.54,5.76-6.52l2-2.59c.73-.93,1.44-2,2.14-3h0c.47-.76,2.27-3.9,2.27-3.9s0,0,0,0a.21.21,0,0,0,0-.07,40.25,40.25,0,0,1,3,3.16,4.5,4.5,0,0,1,.13,1.11,9.1,9.1,0,0,1-.23,1.68l-.23,1.07-.32,1.59-.7,3.43-.75,3.5c-.57,2.68-1.18,5.43-1.83,8.16l-1.79,7.95c-.56,2.56-1,5.08-1.4,7.49a43.35,43.35,0,0,0-.53,6.67,16.06,16.06,0,0,0,.56,4.28,13.7,13.7,0,0,0,1.53,3.6,8,8,0,0,0,2.19,2.35,4.31,4.31,0,0,0,2.52.76,8.87,8.87,0,0,0,2.14-.33,10.87,10.87,0,0,0,2.43-.91,8.9,8.9,0,0,0,1.84-1.29,1,1,0,0,0,.32-.45c0-.22,0-.62-.2-.76-.6-.53-1.27-1.09-2-1.64a12.11,12.11,0,0,1-2.46-2.84,10.1,10.1,0,0,1-1.25-5.46,33.54,33.54,0,0,1,.35-4c.19-1.7.45-3.58.74-5.57s.59-3.92.89-5.68.57-3.21.77-4.09c.74-3.9,1.7-7.89,2.82-11.83s2.15-8,3.13-12.2l.25-1.06,1-.38a23.06,23.06,0,0,1,4.71-1.19c1.79-.29,3.77-.54,5.89-.76l6.49-.6,6.27-.57c1.81-.18,3.73-.43,5.72-.73s4-.67,5.92-1.1,3.88-1,5.75-1.5a39.32,39.32,0,0,0,4.85-1.77,14.61,14.61,0,0,0,2.76-2.09,3.35,3.35,0,0,0,.8-2.54Z"/></g></g></svg>